<svg width="47" height="36" viewBox="0 0 47 36" fill="none" xmlns="http://www.w3.org/2000/svg">
<g id="Group 85">
<path id="Vector 213" d="M23.0355 10.9286H26.8927M26.8927 10.9286H35.8927L39.107 14.1429M26.8927 10.9286V23.1429M41.6784 30.8571H45.1784C45.7307 30.8571 46.1784 30.4094 46.1784 29.8571V22.5M31.7058 30.8571H21.107M10.8213 30.8571H8.60698C8.05469 30.8571 7.60698 30.4094 7.60698 29.8571V23.1429M1.17841 35.5H36.5355M30.107 25.7143H32.0355M39.107 14.1429L46.1784 21.2143V22.5M39.107 14.1429H33.6784C33.1261 14.1429 32.6784 14.5906 32.6784 15.1429V21.5C32.6784 22.0523 33.1261 22.5 33.6784 22.5H46.1784M3.74983 22.5H3.10698M2.46412 25.7143H3.74983M3.74983 28.9286H1.17841M10.8213 16.7143L7.3295 12.2249C6.67604 11.3847 6.32126 10.3507 6.32126 9.28634V9C6.32126 6.51472 8.33598 4.5 10.8213 4.5V4.5C13.3065 4.5 15.3213 6.51472 15.3213 9V9.28634C15.3213 10.3507 14.9665 11.3847 14.313 12.2249L10.8213 16.7143Z" stroke="black" stroke-linecap="round"/>
<circle id="Ellipse 33" cx="15.9642" cy="30.8572" r="4.64286" stroke="black"/>
<circle id="Ellipse 34" cx="36.5357" cy="30.8572" r="4.64286" stroke="black"/>
<circle id="Ellipse 35" cx="10.8214" cy="10.2857" r="9.78571" stroke="black"/>
<circle id="Ellipse 36" cx="10.8213" cy="9.00014" r="2.07143" stroke="black"/>
<circle id="Ellipse 37" cx="15.9641" cy="30.857" r="0.785714" stroke="black"/>
<circle id="Ellipse 38" cx="36.5356" cy="30.857" r="0.785714" stroke="black"/>
</g>
</svg>
