<svg width="39" height="43" viewBox="0 0 39 43" fill="none" xmlns="http://www.w3.org/2000/svg">
<path d="M8.71416 9.78571V3C8.71416 1.89543 9.60959 1 10.7142 1H15.157M18.0856 1H28.9713C30.0759 1 30.9713 1.89543 30.9713 3V17.4M30.9713 23.8429V17.4M19.8427 27.3571H0.51416V19.1571M25.1142 20.719V14.4714M25.1142 14.4714V9.2V11.5429H11.057M25.1142 14.4714H0.51416M0.51416 14.4714V11.5429H11.057M0.51416 14.4714V19.1571M0.51416 19.1571H20.4284M11.057 11.5429V4.92857C11.057 4.37629 11.5047 3.92857 12.057 3.92857H14.657C14.9332 3.92857 15.157 4.15243 15.157 4.42857V5.18571C15.157 5.46186 15.3809 5.68571 15.657 5.68571H23.9C24.1761 5.68571 24.4 5.46186 24.4 5.18571V4.42857C24.4 4.15243 24.6239 3.92857 24.9 3.92857H27.5C28.0523 3.92857 28.5 4.37629 28.5 4.92857V23.3222M8.71416 27.9429V34.7286C8.71416 35.8331 9.60959 36.7286 10.7142 36.7286H22.1856M22.1856 36.7286C22.1856 34.9714 23.1227 31.4571 26.8713 31.4571L20.9526 25.9612C19.7066 24.8042 19.6703 22.8439 20.8726 21.6415L21.3568 21.1573C22.48 20.0342 24.284 19.9811 25.4712 21.0364L33.8999 28.5286M22.1856 36.7286V42H37.9999V26.8311C37.9999 26.0134 37.9175 25.1906 37.5814 24.4452C36.739 22.577 34.7386 19.6604 30.9713 17.4M3.44273 21.5V23.8429H7.54273V21.5H3.44273Z" stroke="black" stroke-linecap="round"/>
<path d="M11.6427 29.1143V29.8714C11.6427 30.4237 12.0904 30.8714 12.6427 30.8714H22.1856" stroke="black" stroke-linecap="round"/>
<circle cx="19.8427" cy="33.8001" r="1.25714" stroke="black"/>
</svg>
