<svg width="34" height="42" viewBox="0 0 34 42" fill="none" xmlns="http://www.w3.org/2000/svg">
<g id="Group 81">
<path id="Vector 203" d="M14.3197 1H29.5807C31.1793 1 32.5208 2.25635 32.4313 3.85246C32.4248 3.96828 32.4175 4.08304 32.4095 4.19672M14.3197 1H4C2.34315 1 1 2.34315 1 4V38.4918C1 40.1487 2.34315 41.4918 4 41.4918H30.0369C31.9495 41.4918 33.5 39.9413 33.5 38.0287V38.0287C33.5 36.1161 31.9495 34.5656 30.0369 34.5656H12.0574C10.9528 34.5656 10.0574 33.6701 10.0574 32.5656V14.3197H14.3197M14.3197 1V4.19672M14.3197 14.3197V4.19672M14.3197 14.3197H23.3771H27.6393C29.1761 13.5513 31.963 10.5222 32.4095 4.19672M14.3197 4.19672H32.4095" stroke="black"/>
<circle id="Ellipse 27" cx="5.26206" cy="15.3852" r="1.09836" stroke="black"/>
<circle id="Ellipse 28" cx="5.26206" cy="20.7131" r="1.09836" stroke="black"/>
<rect id="Rectangle 37" x="4.1637" y="24.9426" width="2.19672" height="4.32787" rx="1.09836" stroke="black"/>
<path id="Vector 204" d="M13.7865 34.5657C12.721 33.145 11.3357 28.8116 14.3193 22.8444M14.3193 22.8444H20.713M14.3193 22.8444C13.964 22.3116 13.4667 21.0329 14.3193 20.1805M14.3193 20.1805H20.713M14.3193 20.1805L13.7868 17.5165H16.7171M20.713 17.5165H16.7171M16.7171 17.5165V14.3198" stroke="black"/>
<path id="Vector 205" d="M26.574 34.5657C27.6396 33.145 29.0248 28.8116 26.0412 22.8444M26.0412 22.8444H20.7131M26.0412 22.8444C26.3965 22.3116 26.8938 21.0329 26.0412 20.1805M26.0412 20.1805H20.7131M26.0412 20.1805L26.5737 17.5165H23.6434M20.7131 17.5165H23.6434M23.6434 17.5165V14.3198" stroke="black"/>
<path id="Vector 206" d="M13.2542 25.5081H27.1067" stroke="black"/>
<path id="Vector 207" d="M26.041 20.1802H28.7049C29.9481 21.4233 32.3279 24.7621 31.9017 28.172C31.7241 28.5272 31.0492 29.0244 29.7705 28.172C29.9481 27.4616 29.8771 25.4015 28.1722 22.8441H26.041" stroke="black"/>
</g>
</svg>
