<svg width="105" height="82" viewBox="0 0 105 82" fill="none" xmlns="http://www.w3.org/2000/svg">
<g id="Group 85">
<path id="Vector 213" d="M51.2497 24.8929H60.0354M60.0354 24.8929H80.5354L87.8568 32.2143M60.0354 24.8929V52.7143M93.714 70.2857H102.964C103.516 70.2857 103.964 69.838 103.964 69.2857V51.25M70.9987 70.2857H46.8568M23.4283 70.2857H17.1068C16.5546 70.2857 16.1068 69.838 16.1068 69.2857V52.7143M1.46399 80.8611H81.9997M67.3568 58.5714H71.7497M87.8568 32.2143L103.964 48.3214V51.25M87.8568 32.2143H74.214C73.6617 32.2143 73.214 32.662 73.214 33.2143V50.25C73.214 50.8023 73.6617 51.25 74.214 51.25H103.964M7.32113 51.25H5.85685M4.39256 58.5714H7.32113M7.32113 65.8929H1.46399M23.4283 36L15.9692 27.9172C14.1747 25.9726 13.1783 23.4236 13.1783 20.7776V20.5C13.1783 14.8391 17.7674 10.25 23.4283 10.25V10.25C29.0892 10.25 33.6783 14.8391 33.6783 20.5V20.7776C33.6783 23.4236 32.6819 25.9726 30.8874 27.9172L23.4283 36Z" stroke="black" stroke-width="2" stroke-linecap="round"/>
<circle id="Ellipse 33" cx="35.1429" cy="70.2858" r="10.7143" stroke="black" stroke-width="2"/>
<circle id="Ellipse 34" cx="82.0003" cy="70.2858" r="10.7143" stroke="black" stroke-width="2"/>
<circle id="Ellipse 35" cx="23.4286" cy="23.4286" r="22.4286" stroke="black" stroke-width="2"/>
<circle id="Ellipse 36" cx="23.4286" cy="20.5005" r="4.85714" stroke="black" stroke-width="2"/>
<circle id="Ellipse 37" cx="35.1426" cy="70.2853" r="1.92857" stroke="black" stroke-width="2"/>
<circle id="Ellipse 38" cx="82" cy="70.2853" r="1.92857" stroke="black" stroke-width="2"/>
</g>
</svg>
