<svg width="162" height="29" viewBox="0 0 162 29" fill="none" xmlns="http://www.w3.org/2000/svg">
<path d="M20.86 26.056C20.428 26.344 19.84 26.668 19.096 27.028C18.352 27.388 17.476 27.688 16.468 27.928C15.484 28.168 14.404 28.288 13.228 28.288C11.212 28.264 9.388 27.904 7.756 27.208C6.148 26.512 4.78 25.564 3.652 24.364C2.524 23.164 1.648 21.784 1.024 20.224C0.424 18.64 0.124 16.96 0.124 15.184C0.124 13.24 0.436 11.452 1.06 9.82C1.708 8.164 2.608 6.736 3.76 5.536C4.912 4.312 6.268 3.364 7.828 2.692C9.412 2.02 11.14 1.684 13.012 1.684C14.572 1.684 15.988 1.9 17.26 2.332C18.532 2.74 19.624 3.232 20.536 3.808L19.132 7.048C18.412 6.568 17.536 6.112 16.504 5.68C15.496 5.248 14.368 5.032 13.12 5.032C11.848 5.032 10.648 5.284 9.52 5.788C8.392 6.292 7.396 7 6.532 7.912C5.668 8.824 4.984 9.892 4.48 11.116C4 12.316 3.76 13.612 3.76 15.004C3.76 16.42 3.976 17.74 4.408 18.964C4.864 20.164 5.5 21.208 6.316 22.096C7.156 22.984 8.164 23.68 9.34 24.184C10.516 24.688 11.836 24.94 13.3 24.94C14.62 24.94 15.796 24.736 16.828 24.328C17.86 23.92 18.712 23.464 19.384 22.96L20.86 26.056ZM24.6161 20.404C24.6161 18.916 24.9641 17.572 25.6601 16.372C26.3801 15.172 27.3641 14.224 28.6121 13.528C29.8601 12.832 31.2761 12.484 32.8601 12.484C34.4921 12.484 35.9201 12.832 37.1441 13.528C38.3681 14.224 39.3161 15.172 39.9881 16.372C40.6601 17.572 40.9961 18.916 40.9961 20.404C40.9961 21.892 40.6601 23.248 39.9881 24.472C39.3161 25.672 38.3561 26.62 37.1081 27.316C35.8841 28.012 34.4561 28.36 32.8241 28.36C31.2401 28.36 29.8241 28.036 28.5761 27.388C27.3521 26.716 26.3801 25.792 25.6601 24.616C24.9641 23.416 24.6161 22.012 24.6161 20.404ZM27.9641 20.44C27.9641 21.4 28.1801 22.276 28.6121 23.068C29.0441 23.836 29.6201 24.448 30.3401 24.904C31.0841 25.36 31.9001 25.588 32.7881 25.588C33.7241 25.588 34.5521 25.36 35.2721 24.904C36.0161 24.448 36.5921 23.836 37.0001 23.068C37.4081 22.276 37.6121 21.4 37.6121 20.44C37.6121 19.48 37.4081 18.616 37.0001 17.848C36.5921 17.056 36.0161 16.432 35.2721 15.976C34.5521 15.496 33.7241 15.256 32.7881 15.256C31.8761 15.256 31.0481 15.496 30.3041 15.976C29.5841 16.456 29.0081 17.092 28.5761 17.884C28.1681 18.652 27.9641 19.504 27.9641 20.44ZM46.7533 28V16.084H44.1973V13.096H46.7533V6.796C46.7533 4.636 47.2333 2.98 48.1933 1.828C49.1773 0.675998 50.6173 0.0999987 52.5133 0.0999987C53.0173 0.0999987 53.5693 0.171999 54.1693 0.315998C54.7933 0.459999 55.3333 0.7 55.7893 1.036L54.3853 3.448C54.1693 3.232 53.9293 3.088 53.6653 3.016C53.4013 2.92 53.1373 2.872 52.8733 2.872C51.9853 2.872 51.3013 3.172 50.8213 3.772C50.3413 4.372 50.1013 5.392 50.1013 6.832V13.096H54.8173V16.084H50.1013V28H46.7533ZM57.7333 28V16.084H55.1773V13.096H57.7333V6.796C57.7333 4.636 58.2133 2.98 59.1733 1.828C60.1573 0.675998 61.5973 0.0999987 63.4933 0.0999987C63.9973 0.0999987 64.5493 0.171999 65.1493 0.315998C65.7733 0.459999 66.3133 0.7 66.7693 1.036L65.3653 3.448C65.1493 3.232 64.9093 3.088 64.6453 3.016C64.3813 2.92 64.1173 2.872 63.8533 2.872C62.9653 2.872 62.2813 3.172 61.8013 3.772C61.3213 4.372 61.0813 5.392 61.0813 6.832V13.096H65.7973V16.084H61.0813V28H57.7333ZM76.91 28.36C75.206 28.36 73.742 28.024 72.518 27.352C71.294 26.656 70.346 25.72 69.674 24.544C69.026 23.344 68.702 21.976 68.702 20.44C68.702 18.976 69.074 17.644 69.818 16.444C70.562 15.244 71.558 14.284 72.806 13.564C74.054 12.844 75.446 12.484 76.982 12.484C78.95 12.484 80.582 13.06 81.878 14.212C83.174 15.364 84.05 16.948 84.506 18.964L72.23 23.284L71.438 21.304L81.518 17.632L80.798 18.1C80.51 17.308 80.03 16.624 79.358 16.048C78.686 15.448 77.81 15.148 76.73 15.148C75.818 15.148 75.002 15.376 74.282 15.832C73.562 16.264 72.998 16.864 72.59 17.632C72.182 18.4 71.978 19.276 71.978 20.26C71.978 21.292 72.194 22.204 72.626 22.996C73.058 23.764 73.646 24.376 74.39 24.832C75.158 25.264 76.022 25.48 76.982 25.48C77.63 25.48 78.254 25.36 78.854 25.12C79.478 24.88 80.054 24.568 80.582 24.184L82.13 26.668C81.386 27.172 80.546 27.58 79.61 27.892C78.698 28.204 77.798 28.36 76.91 28.36ZM95.6132 28.36C93.9092 28.36 92.4452 28.024 91.2212 27.352C89.9972 26.656 89.0492 25.72 88.3772 24.544C87.7292 23.344 87.4052 21.976 87.4052 20.44C87.4052 18.976 87.7772 17.644 88.5212 16.444C89.2652 15.244 90.2612 14.284 91.5092 13.564C92.7572 12.844 94.1492 12.484 95.6852 12.484C97.6532 12.484 99.2852 13.06 100.581 14.212C101.877 15.364 102.753 16.948 103.209 18.964L90.9332 23.284L90.1412 21.304L100.221 17.632L99.5012 18.1C99.2132 17.308 98.7332 16.624 98.0612 16.048C97.3892 15.448 96.5132 15.148 95.4332 15.148C94.5212 15.148 93.7052 15.376 92.9852 15.832C92.2652 16.264 91.7012 16.864 91.2932 17.632C90.8852 18.4 90.6812 19.276 90.6812 20.26C90.6812 21.292 90.8972 22.204 91.3292 22.996C91.7612 23.764 92.3492 24.376 93.0932 24.832C93.8612 25.264 94.7252 25.48 95.6852 25.48C96.3332 25.48 96.9572 25.36 97.5572 25.12C98.1812 24.88 98.7572 24.568 99.2852 24.184L100.833 26.668C100.089 27.172 99.2492 27.58 98.3132 27.892C97.4012 28.204 96.5012 28.36 95.6132 28.36ZM130.768 28.828L110.644 8.416L111.652 8.668L111.724 28H108.232V1.18H108.412L128.32 21.664L127.492 21.484L127.42 1.972H130.876V28.828H130.768ZM160.897 28.828L140.773 8.416L141.781 8.668L141.853 28H138.361V1.18H138.541L158.449 21.664L157.621 21.484L157.549 1.972H161.005V28.828H160.897Z" fill="#FFF7ED"/>
</svg>
