<svg width="42" height="41" viewBox="0 0 42 41" fill="none" xmlns="http://www.w3.org/2000/svg">
<g id="Group 82">
<path id="Vector 208" d="M21.4665 27.1343L30.7279 37.2165C32.623 39.2796 35.8552 39.3482 37.8361 37.3673V37.3673C39.8414 35.362 39.7425 32.0815 37.6203 30.2004C36.4328 29.1478 35.306 28.149 34.2137 27.1809C31.1807 24.4925 28.4139 22.0402 25.3525 19.3266M18.4948 13.2482C19.542 8.53567 18.7042 -0.470554 6.97521 1.20502L12.0279 6.25774C12.4184 6.64826 12.4184 7.28143 12.0279 7.67195L8.69948 11.0004C8.3209 11.379 7.71131 11.3922 7.31664 11.0304L1.73903 5.91761C0.866335 10.6302 2.0532 19.6364 13.7822 17.9608L16.1744 20.8975M18.4948 13.2482C19.9025 14.4959 21.2134 15.6579 22.4578 16.7609L18.4948 13.2482Z" stroke="black" stroke-linecap="round"/>
<circle id="Ellipse 29" cx="35.2505" cy="34.7165" r="1.59447" stroke="black"/>
<path id="Vector 209" d="M6 32.5L12.509 26.6572M9 35L15.1271 29.2753M21.4105 18.2793L20.0232 16.892C19.6326 16.5014 18.9995 16.5014 18.609 16.892L16.698 18.803C17.1169 22.573 13.2072 23.8646 11.4618 24.0391L4.16771 30.6385C2.15382 32.4606 2.07545 35.5975 3.99583 37.5179V37.5179C5.81846 39.3405 8.76227 39.3764 10.6288 37.5988L18.2688 30.3225C17.8499 26.1336 21.0615 25.0864 22.9814 25.0864L24.8924 23.1754C25.2829 22.7849 25.2829 22.1517 24.8924 21.7612L23.505 20.3738M21.4105 18.2793L23.505 20.3738M21.4105 18.2793L27.6939 12.5195M23.505 20.3738L36.5954 7.80698M36.5954 7.80698L38.4962 6.8566C39.1067 6.55135 39.2387 5.73771 38.7561 5.25507L37.0529 3.55186C36.5702 3.06922 35.7566 3.20125 35.4514 3.81175L34.501 5.71251M36.5954 7.80698L34.501 5.71251M34.501 5.71251L29.2648 10.9487" stroke="black" stroke-linecap="round"/>
</g>
</svg>
