<svg width="44" height="44" viewBox="0 0 44 44" fill="none" xmlns="http://www.w3.org/2000/svg">
<circle cx="16.2632" cy="16.2634" r="14" stroke="black"/>
<path d="M8.76318 16.7634H11.7632L13.2632 12.7634L14.7632 16.7634H17.7632L19.2632 20.7634L20.7632 16.7634H23.7632" stroke="black"/>
<path d="M24.3952 8.1317C26.4055 10.142 27.5999 12.8258 27.7479 15.6649C27.8958 18.5041 26.9869 21.2975 25.1964 23.5059C23.4059 25.7143 20.8609 27.1812 18.0524 27.6234C15.244 28.0657 12.3713 27.452 9.98878 25.9008C7.60623 24.3495 5.88275 21.9708 5.15095 19.2235C4.41915 16.4763 4.73093 13.5554 6.0261 11.0245C7.32127 8.49361 9.50802 6.53219 12.1643 5.5188C14.8206 4.50541 17.7581 4.51188 20.4099 5.53697" stroke="black" stroke-linecap="round"/>
<circle cx="22.5132" cy="6.51343" r="0.5" fill="black" stroke="black" stroke-width="0.5"/>
<path d="M31.1852 27.5L41.8296 37.4103C42.5646 38.0946 42.9262 39.0903 42.8017 40.0867C42.6242 41.5062 41.5062 42.6242 40.0867 42.8017C39.0903 42.9262 38.0946 42.5646 37.4103 41.8296L27.5 31.1852L25 28.5L26.5 27L28.5 25L31.1852 27.5Z" fill="black"/>
<path d="M27.5 31.1852L25 28.5L26.5 27L28.5 25L41.8296 37.4103C42.5646 38.0946 42.9262 39.0903 42.8017 40.0867V40.0867C42.6242 41.5062 41.5062 42.6242 40.0867 42.8017V42.8017C39.0903 42.9262 38.0946 42.5646 37.4103 41.8296L27.5 31.1852ZM27.5 31.1852L31.1852 27.5" stroke="black"/>
</svg>
