<svg width="27" height="27" viewBox="0 0 27 27" fill="none" xmlns="http://www.w3.org/2000/svg">
<path d="M2.67962 3.32038L4.29289 1.70711C4.68342 1.31658 5.31658 1.31658 5.70711 1.70711L10.2929 6.29289C10.6834 6.68342 10.6834 7.31658 10.2929 7.70711L8.40762 9.59238C8.16419 9.83581 8.10384 10.2077 8.2578 10.5156C10.0378 14.0756 12.9244 16.9622 16.4844 18.7422C16.7923 18.8962 17.1642 18.8358 17.4076 18.5924L19.2929 16.7071C19.6834 16.3166 20.3166 16.3166 20.7071 16.7071L25.2929 21.2929C25.6834 21.6834 25.6834 22.3166 25.2929 22.7071L23.6796 24.3204C21.5683 26.4317 18.2257 26.6693 15.837 24.8777L10.6286 20.9714C8.88504 19.6638 7.33622 18.115 6.02857 16.3714L2.12226 11.163C0.330722 8.7743 0.568273 5.43173 2.67962 3.32038Z" stroke="#061320" stroke-width="1.5"/>
</svg>
