<svg width="29" height="32" viewBox="0 0 29 32" fill="none" xmlns="http://www.w3.org/2000/svg">
<path d="M14.6786 30.8946L14.3479 30.2215L14.6786 30.8946ZM13.8903 30.8946L13.5596 31.5678L13.5596 31.5678L13.8903 30.8946ZM26.819 14.1607C26.819 18.819 24.304 22.549 21.4321 25.2888C18.5635 28.0255 15.4172 29.6962 14.3479 30.2215L15.0093 31.5678C16.1428 31.011 19.4417 29.2608 22.4675 26.3741C25.4902 23.4904 28.319 19.3945 28.319 14.1607H26.819ZM14.2845 1.75C21.2137 1.75 26.819 7.31305 26.819 14.1607H28.319C28.319 6.47141 22.0289 0.25 14.2845 0.25V1.75ZM1.75 14.1607C1.75 7.31305 7.35524 1.75 14.2845 1.75V0.25C6.54009 0.25 0.25 6.47141 0.25 14.1607H1.75ZM14.221 30.2215C13.1517 29.6962 10.0055 28.0255 7.13684 25.2888C4.26498 22.549 1.75 18.819 1.75 14.1607H0.25C0.25 19.3945 3.0788 23.4904 6.10142 26.3741C9.12727 29.2608 12.4262 31.011 13.5596 31.5678L14.221 30.2215ZM14.3479 30.2215C14.303 30.2435 14.2659 30.2435 14.221 30.2215L13.5596 31.5678C14.0217 31.7948 14.5473 31.7948 15.0093 31.5678L14.3479 30.2215ZM19.2279 14.1615C19.2279 16.8557 17.0214 19.0518 14.2846 19.0518V20.5518C17.8365 20.5518 20.7279 17.6973 20.7279 14.1615H19.2279ZM14.2846 9.2712C17.0214 9.2712 19.2279 11.4673 19.2279 14.1615H20.7279C20.7279 10.6256 17.8365 7.7712 14.2846 7.7712V9.2712ZM9.34124 14.1615C9.34124 11.4673 11.5478 9.2712 14.2846 9.2712V7.7712C10.7327 7.7712 7.84124 10.6256 7.84124 14.1615H9.34124ZM14.2846 19.0518C11.5478 19.0518 9.34124 16.8557 9.34124 14.1615H7.84124C7.84124 17.6973 10.7327 20.5518 14.2846 20.5518V19.0518Z" fill="#061320"/>
</svg>
