<svg width="37" height="42" viewBox="0 0 37 42" fill="none" xmlns="http://www.w3.org/2000/svg">
<g id="Group 84">
<path id="Vector 212" d="M5.14272 8.42857L2.28557 11.8571M2.28557 11.8571L0.571289 41H35.9999L34.857 11.8571M2.28557 11.8571H5.71415M34.857 11.8571L32.5713 8.42857H30.857M34.857 11.8571H29.4284M12.5713 17.5714V21.5714C12.5713 24.7273 15.1297 27.2857 18.2856 27.2857V27.2857C21.4415 27.2857 23.9999 24.7273 23.9999 21.5714V17.5714M5.71415 11.8571L5.14272 2.14286L17.1427 1L17.7141 6.71429M5.71415 11.8571H11.4284M11.4284 11.8571L10.5917 8.42857L19.9999 6.58963M11.4284 11.8571H23.9999M23.9999 11.8571L22.2856 6.14286L19.9999 6.58963M23.9999 11.8571H29.4284M19.9999 6.58963L21.1427 3.28571L30.857 5.57143L29.4284 11.8571" stroke="black" stroke-linecap="round"/>
<circle id="Ellipse 31" cx="12.5713" cy="15.2857" r="1.78571" stroke="black"/>
<circle id="Ellipse 32" cx="23.9999" cy="15.2857" r="1.78571" stroke="black"/>
</g>
</svg>
